<mxfile host="app.diagrams.net" agent="Mozilla/5.0 (Windows NT 10.0; Win64; x64) AppleWebKit/537.36 (KHTML, like Gecko) Chrome/133.0.0.0 Safari/537.36 Edg/133.0.0.0" version="26.0.16">
  <diagram name="Página-1" id="WbtgjmMOUl-2joLJ4ouv">
    <mxGraphModel dx="1261" dy="801" grid="1" gridSize="10" guides="1" tooltips="1" connect="1" arrows="1" fold="1" page="1" pageScale="1" pageWidth="827" pageHeight="1169" math="0" shadow="0">
      <root>
        <mxCell id="0" />
        <mxCell id="1" parent="0" />
        <mxCell id="R7wfPo-XbXx_l8aQy3f_-1" value="" style="ellipse;html=1;shape=startState;fillColor=#000000;strokeColor=#ff0000;" vertex="1" parent="1">
          <mxGeometry x="360" y="60" width="30" height="30" as="geometry" />
        </mxCell>
        <mxCell id="R7wfPo-XbXx_l8aQy3f_-3" value="Fase de reserva de bilhetes" style="rounded=1;whiteSpace=wrap;html=1;" vertex="1" parent="1">
          <mxGeometry x="315" y="250" width="120" height="60" as="geometry" />
        </mxCell>
        <mxCell id="R7wfPo-XbXx_l8aQy3f_-4" value="" style="endArrow=classic;html=1;rounded=0;" edge="1" parent="1">
          <mxGeometry width="50" height="50" relative="1" as="geometry">
            <mxPoint x="374.52000000000004" y="310" as="sourcePoint" />
            <mxPoint x="375" y="370" as="targetPoint" />
          </mxGeometry>
        </mxCell>
        <mxCell id="R7wfPo-XbXx_l8aQy3f_-5" value="Compra de bilhetes&lt;div&gt;s/reserva&lt;/div&gt;" style="rounded=1;whiteSpace=wrap;html=1;" vertex="1" parent="1">
          <mxGeometry x="470" y="570" width="120" height="60" as="geometry" />
        </mxCell>
        <mxCell id="R7wfPo-XbXx_l8aQy3f_-6" value="com reserva" style="endArrow=classic;html=1;rounded=0;exitX=0;exitY=0.5;exitDx=0;exitDy=0;exitPerimeter=0;" edge="1" parent="1" source="R7wfPo-XbXx_l8aQy3f_-9">
          <mxGeometry width="50" height="50" relative="1" as="geometry">
            <mxPoint x="340" y="510" as="sourcePoint" />
            <mxPoint x="280" y="570" as="targetPoint" />
            <Array as="points">
              <mxPoint x="280" y="510" />
            </Array>
          </mxGeometry>
        </mxCell>
        <mxCell id="R7wfPo-XbXx_l8aQy3f_-7" value="Fase de venda de bilhetes" style="rounded=1;whiteSpace=wrap;html=1;" vertex="1" parent="1">
          <mxGeometry x="315" y="370" width="120" height="60" as="geometry" />
        </mxCell>
        <mxCell id="R7wfPo-XbXx_l8aQy3f_-9" value="" style="strokeWidth=2;html=1;shape=mxgraph.flowchart.decision;whiteSpace=wrap;" vertex="1" parent="1">
          <mxGeometry x="345" y="480" width="60" height="60" as="geometry" />
        </mxCell>
        <mxCell id="R7wfPo-XbXx_l8aQy3f_-10" value="sem reserva" style="endArrow=classic;html=1;rounded=0;exitX=1;exitY=0.5;exitDx=0;exitDy=0;exitPerimeter=0;entryX=0.5;entryY=0;entryDx=0;entryDy=0;" edge="1" parent="1" source="R7wfPo-XbXx_l8aQy3f_-9" target="R7wfPo-XbXx_l8aQy3f_-5">
          <mxGeometry width="50" height="50" relative="1" as="geometry">
            <mxPoint x="410" y="410" as="sourcePoint" />
            <mxPoint x="460" y="560" as="targetPoint" />
            <Array as="points">
              <mxPoint x="530" y="510" />
            </Array>
          </mxGeometry>
        </mxCell>
        <mxCell id="R7wfPo-XbXx_l8aQy3f_-11" value="Compra bilhetes com reserva" style="rounded=1;whiteSpace=wrap;html=1;" vertex="1" parent="1">
          <mxGeometry x="220" y="690" width="120" height="60" as="geometry" />
        </mxCell>
        <mxCell id="R7wfPo-XbXx_l8aQy3f_-12" value="Espetáculo marcado" style="rounded=1;whiteSpace=wrap;html=1;" vertex="1" parent="1">
          <mxGeometry x="315" y="130" width="120" height="60" as="geometry" />
        </mxCell>
        <mxCell id="R7wfPo-XbXx_l8aQy3f_-13" value="" style="endArrow=classic;html=1;rounded=0;exitX=0.5;exitY=1;exitDx=0;exitDy=0;entryX=0.5;entryY=0;entryDx=0;entryDy=0;" edge="1" parent="1" source="R7wfPo-XbXx_l8aQy3f_-12" target="R7wfPo-XbXx_l8aQy3f_-3">
          <mxGeometry width="50" height="50" relative="1" as="geometry">
            <mxPoint x="350" y="280" as="sourcePoint" />
            <mxPoint x="400" y="230" as="targetPoint" />
          </mxGeometry>
        </mxCell>
        <mxCell id="R7wfPo-XbXx_l8aQy3f_-14" value="" style="endArrow=classic;html=1;rounded=0;exitX=0.5;exitY=1;exitDx=0;exitDy=0;" edge="1" parent="1" source="R7wfPo-XbXx_l8aQy3f_-1" target="R7wfPo-XbXx_l8aQy3f_-12">
          <mxGeometry width="50" height="50" relative="1" as="geometry">
            <mxPoint x="350" y="280" as="sourcePoint" />
            <mxPoint x="400" y="230" as="targetPoint" />
          </mxGeometry>
        </mxCell>
        <mxCell id="R7wfPo-XbXx_l8aQy3f_-15" value="" style="endArrow=classic;html=1;rounded=0;exitX=0.5;exitY=1;exitDx=0;exitDy=0;" edge="1" parent="1" source="R7wfPo-XbXx_l8aQy3f_-7">
          <mxGeometry width="50" height="50" relative="1" as="geometry">
            <mxPoint x="330" y="600" as="sourcePoint" />
            <mxPoint x="375" y="480" as="targetPoint" />
          </mxGeometry>
        </mxCell>
        <mxCell id="R7wfPo-XbXx_l8aQy3f_-17" value="" style="strokeWidth=2;html=1;shape=mxgraph.flowchart.decision;whiteSpace=wrap;" vertex="1" parent="1">
          <mxGeometry x="250" y="570" width="60" height="60" as="geometry" />
        </mxCell>
        <mxCell id="R7wfPo-XbXx_l8aQy3f_-18" value="data-hora limite expiradas" style="endArrow=classic;html=1;rounded=0;entryX=0;entryY=0.5;entryDx=0;entryDy=0;" edge="1" parent="1" target="R7wfPo-XbXx_l8aQy3f_-5">
          <mxGeometry width="50" height="50" relative="1" as="geometry">
            <mxPoint x="310" y="600" as="sourcePoint" />
            <mxPoint x="360" y="550" as="targetPoint" />
          </mxGeometry>
        </mxCell>
        <mxCell id="R7wfPo-XbXx_l8aQy3f_-19" value="dentro limite data-hora" style="endArrow=classic;html=1;rounded=0;exitX=0.5;exitY=1;exitDx=0;exitDy=0;exitPerimeter=0;" edge="1" parent="1" source="R7wfPo-XbXx_l8aQy3f_-17" target="R7wfPo-XbXx_l8aQy3f_-11">
          <mxGeometry width="50" height="50" relative="1" as="geometry">
            <mxPoint x="210" y="540" as="sourcePoint" />
            <mxPoint x="260" y="490" as="targetPoint" />
          </mxGeometry>
        </mxCell>
        <mxCell id="R7wfPo-XbXx_l8aQy3f_-20" value="Início espetáculo" style="rounded=1;whiteSpace=wrap;html=1;" vertex="1" parent="1">
          <mxGeometry x="315" y="800" width="120" height="60" as="geometry" />
        </mxCell>
        <mxCell id="R7wfPo-XbXx_l8aQy3f_-21" value="Fim espetáculo" style="rounded=1;whiteSpace=wrap;html=1;" vertex="1" parent="1">
          <mxGeometry x="315" y="910" width="120" height="60" as="geometry" />
        </mxCell>
        <mxCell id="R7wfPo-XbXx_l8aQy3f_-22" value="" style="endArrow=classic;html=1;rounded=0;exitX=0.5;exitY=1;exitDx=0;exitDy=0;entryX=0.5;entryY=0;entryDx=0;entryDy=0;" edge="1" parent="1" source="R7wfPo-XbXx_l8aQy3f_-20" target="R7wfPo-XbXx_l8aQy3f_-21">
          <mxGeometry width="50" height="50" relative="1" as="geometry">
            <mxPoint x="230" y="950" as="sourcePoint" />
            <mxPoint x="280" y="900" as="targetPoint" />
          </mxGeometry>
        </mxCell>
        <mxCell id="R7wfPo-XbXx_l8aQy3f_-23" value="" style="endArrow=classic;html=1;rounded=0;exitX=0.5;exitY=1;exitDx=0;exitDy=0;entryX=0;entryY=0.5;entryDx=0;entryDy=0;" edge="1" parent="1" source="R7wfPo-XbXx_l8aQy3f_-11" target="R7wfPo-XbXx_l8aQy3f_-20">
          <mxGeometry width="50" height="50" relative="1" as="geometry">
            <mxPoint x="250" y="680" as="sourcePoint" />
            <mxPoint x="300" y="630" as="targetPoint" />
            <Array as="points">
              <mxPoint x="280" y="830" />
            </Array>
          </mxGeometry>
        </mxCell>
        <mxCell id="R7wfPo-XbXx_l8aQy3f_-24" value="" style="endArrow=classic;html=1;rounded=0;exitX=0.5;exitY=1;exitDx=0;exitDy=0;entryX=1;entryY=0.5;entryDx=0;entryDy=0;" edge="1" parent="1" source="R7wfPo-XbXx_l8aQy3f_-5" target="R7wfPo-XbXx_l8aQy3f_-20">
          <mxGeometry width="50" height="50" relative="1" as="geometry">
            <mxPoint x="250" y="680" as="sourcePoint" />
            <mxPoint x="300" y="630" as="targetPoint" />
            <Array as="points">
              <mxPoint x="530" y="830" />
            </Array>
          </mxGeometry>
        </mxCell>
        <mxCell id="R7wfPo-XbXx_l8aQy3f_-25" value="" style="ellipse;html=1;shape=endState;fillColor=#000000;strokeColor=#ff0000;" vertex="1" parent="1">
          <mxGeometry x="360" y="1030" width="30" height="30" as="geometry" />
        </mxCell>
        <mxCell id="R7wfPo-XbXx_l8aQy3f_-26" value="" style="endArrow=classic;html=1;rounded=0;exitX=0.5;exitY=1;exitDx=0;exitDy=0;entryX=0.5;entryY=0;entryDx=0;entryDy=0;" edge="1" parent="1" source="R7wfPo-XbXx_l8aQy3f_-21" target="R7wfPo-XbXx_l8aQy3f_-25">
          <mxGeometry width="50" height="50" relative="1" as="geometry">
            <mxPoint x="250" y="1000" as="sourcePoint" />
            <mxPoint x="300" y="950" as="targetPoint" />
          </mxGeometry>
        </mxCell>
      </root>
    </mxGraphModel>
  </diagram>
</mxfile>
